<?xml version="1.0" standalone="no"?>
<!DOCTYPE svg PUBLIC "-//W3C//DTD SVG 20010904//EN"
 "http://www.w3.org/TR/2001/REC-SVG-20010904/DTD/svg10.dtd">
<svg version="1.0" xmlns="http://www.w3.org/2000/svg"
 width="512.000000pt" height="512.000000pt" viewBox="0 0 512.000000 512.000000"
 preserveAspectRatio="xMidYMid meet">

<g transform="translate(0.000000,512.000000) scale(0.100000,-0.100000)"
fill="#000000" stroke="none">
<path d="M435 4901 c-104 -30 -185 -78 -260 -155 -82 -82 -127 -162 -155 -272
-19 -75 -20 -115 -20 -1324 0 -1209 1 -1249 20 -1324 28 -110 74 -190 155
-272 51 -51 92 -81 145 -107 130 -64 156 -67 526 -67 l331 0 6 -172 c4 -141
10 -191 31 -272 90 -346 356 -612 706 -708 74 -20 107 -23 250 -22 137 0 178
4 243 22 268 74 489 247 617 485 86 159 120 309 120 528 l0 139 728 0 c617 0
737 2 787 15 214 55 381 220 435 430 19 76 20 112 20 1325 0 1209 -1 1249 -20
1324 -11 43 -34 105 -52 139 -46 86 -155 194 -243 239 -142 73 37 68 -2251 67
-1931 0 -2063 -2 -2119 -18z m4163 -387 c44 -18 87 -57 110 -99 14 -25 18 -69
20 -252 l4 -223 -2172 0 -2172 0 4 223 c3 241 6 253 65 309 64 61 -91 57 2101
58 1788 0 2007 -2 2040 -16z m130 -1786 c-3 -743 -4 -816 -20 -844 -24 -44
-81 -91 -125 -103 -26 -7 -399 -11 -1129 -11 l-1092 0 -4 208 c-4 190 -7 213
-30 279 -97 274 -319 456 -602 493 -261 35 -489 -122 -536 -369 -5 -30 -10
-179 -10 -332 l0 -279 -302 0 c-181 0 -318 4 -341 11 -44 12 -101 59 -125 103
-16 28 -17 101 -20 844 l-3 812 2171 0 2171 0 -3 -812z m-2943 -401 c64 -33
128 -98 157 -162 22 -49 23 -59 26 -417 l3 -368 396 0 396 0 -6 -152 c-8 -231
-54 -346 -190 -474 -235 -222 -589 -216 -817 15 -49 49 -86 99 -107 141 -63
127 -63 122 -63 799 0 711 -8 657 95 648 37 -2 80 -14 110 -30z"/>
</g>
</svg>
