<?xml version="1.0" standalone="no"?>
<!DOCTYPE svg PUBLIC "-//W3C//DTD SVG 20010904//EN"
 "http://www.w3.org/TR/2001/REC-SVG-20010904/DTD/svg10.dtd">
<svg version="1.0" xmlns="http://www.w3.org/2000/svg"
 width="512.000000pt" height="512.000000pt" viewBox="0 0 512.000000 512.000000"
 preserveAspectRatio="xMidYMid meet">

<g transform="translate(0.000000,512.000000) scale(0.100000,-0.100000)"
fill="#000000" stroke="none">
<path d="M2465 5102 c-27 -10 -106 -55 -174 -101 -68 -46 -138 -89 -156 -96
-26 -11 -63 -12 -197 -3 -193 12 -235 8 -306 -33 -67 -38 -100 -84 -174 -238
-32 -69 -68 -137 -80 -153 -13 -20 -71 -55 -181 -110 -269 -134 -291 -173
-274 -490 l10 -176 -96 -149 c-117 -181 -127 -204 -127 -290 0 -85 12 -110
128 -286 l92 -139 -1 -66 c0 -37 -4 -118 -8 -180 -18 -244 20 -302 278 -431
106 -54 166 -89 179 -108 11 -15 50 -89 87 -163 36 -74 77 -149 90 -165 l23
-31 -269 -578 c-148 -317 -269 -583 -269 -591 0 -30 24 -64 52 -76 36 -15 19
-22 437 197 161 85 296 153 298 150 3 -3 42 -175 88 -382 70 -324 85 -380 105
-396 31 -25 77 -23 101 5 11 12 113 221 226 465 114 243 209 442 213 442 4 0
99 -199 213 -442 113 -244 215 -453 226 -465 24 -28 70 -30 101 -5 20 16 35
72 105 396 46 207 85 379 88 382 3 3 142 -66 309 -154 411 -217 390 -208 426
-193 28 12 52 46 52 76 0 7 -121 274 -269 591 l-269 578 23 30 c13 17 54 92
90 166 37 74 76 148 87 163 13 19 73 54 179 108 258 129 296 187 278 431 -4
62 -8 143 -8 180 l-1 66 92 139 c116 176 128 201 128 286 0 86 -10 109 -127
290 l-96 149 10 176 c17 317 -5 356 -274 490 -113 57 -167 90 -182 111 -12 16
-48 85 -80 153 -73 153 -107 199 -173 237 -71 41 -113 45 -306 33 -134 -9
-171 -8 -197 3 -18 7 -88 50 -156 96 -134 90 -198 118 -269 118 -25 0 -67 -8
-95 -17z m272 -234 c215 -142 210 -141 493 -125 195 12 187 17 302 -208 57
-113 98 -180 120 -198 18 -16 103 -64 188 -107 85 -43 163 -87 173 -97 30 -34
34 -72 23 -252 -7 -131 -6 -185 3 -220 7 -26 48 -100 95 -171 104 -157 116
-180 116 -225 0 -45 -12 -68 -116 -225 -47 -71 -88 -145 -95 -171 -9 -35 -10
-89 -3 -220 11 -180 7 -218 -23 -252 -10 -10 -85 -53 -168 -94 -82 -42 -167
-89 -187 -105 -29 -22 -57 -68 -123 -198 -83 -165 -112 -204 -161 -216 -13 -3
-101 -1 -196 5 -220 14 -229 12 -424 -117 -198 -130 -190 -130 -388 0 -195
129 -206 132 -425 117 -94 -6 -182 -8 -195 -5 -49 12 -78 50 -161 216 -66 130
-94 176 -123 198 -20 16 -104 63 -187 105 -82 41 -158 84 -168 94 -30 34 -34
72 -23 252 7 131 6 185 -3 220 -7 26 -48 100 -95 171 -104 157 -116 180 -116
225 0 45 12 68 116 225 47 71 88 145 95 171 9 35 10 89 3 220 -11 180 -7 218
23 251 10 11 89 56 177 100 101 51 171 94 194 117 19 20 71 108 116 196 108
214 102 209 296 198 283 -16 278 -17 493 125 182 121 172 121 354 0z m-603
-3242 c18 -8 89 -51 156 -96 141 -95 172 -109 251 -118 l58 -7 -245 -525
c-135 -289 -249 -528 -253 -533 -4 -4 -29 93 -55 215 -79 367 -87 399 -107
419 -37 37 -72 25 -358 -126 -151 -80 -276 -143 -278 -141 -2 2 90 205 206
452 l209 449 163 11 c90 6 177 12 192 12 15 1 43 -4 61 -12z m1160 -4 l108 -7
209 -449 c116 -247 208 -450 207 -452 -2 -2 -127 62 -278 141 -268 141 -309
157 -349 135 -27 -14 -34 -39 -102 -358 -35 -161 -66 -289 -70 -285 -4 5 -89
183 -189 397 l-182 389 93 200 94 199 58 40 c92 62 111 68 207 62 47 -3 134
-9 194 -12z"/>
<path d="M2356 4424 c-252 -46 -474 -168 -656 -361 -479 -509 -404 -1320 160
-1742 411 -307 987 -307 1400 0 455 338 605 955 356 1460 -141 284 -386 499
-682 598 -178 60 -400 77 -578 45z m454 -173 c324 -85 588 -323 701 -631 46
-128 61 -212 62 -350 1 -177 -28 -301 -109 -466 -120 -244 -364 -443 -639
-520 -113 -32 -298 -43 -412 -24 -223 35 -419 134 -573 289 -309 311 -383 771
-190 1166 143 292 437 506 765 558 17 3 93 4 170 3 106 -2 161 -9 225 -25z"/>
<path d="M2523 4088 c-13 -6 -36 -39 -54 -77 -17 -36 -67 -142 -111 -236 -44
-93 -81 -171 -83 -173 -1 -1 -112 -16 -246 -33 -134 -16 -259 -36 -276 -44
-35 -16 -49 -48 -39 -89 3 -14 87 -100 196 -201 153 -143 189 -182 185 -199
-43 -195 -93 -491 -85 -511 10 -27 47 -55 73 -55 11 0 122 57 248 126 l229
126 229 -126 c126 -69 238 -126 248 -126 26 0 63 28 73 55 8 20 -42 316 -85
511 -4 17 32 56 185 199 109 101 193 187 196 201 10 41 -4 73 -39 89 -17 8
-142 28 -276 44 -134 17 -245 32 -246 33 -2 2 -39 80 -83 173 -44 94 -93 200
-111 236 -39 82 -74 103 -128 77z m121 -438 c43 -93 86 -176 96 -185 12 -11
78 -23 210 -40 106 -14 194 -26 196 -27 1 -2 -60 -61 -136 -132 -77 -71 -143
-140 -148 -155 -6 -19 1 -78 26 -209 19 -100 32 -185 30 -188 -3 -2 -78 36
-167 86 -99 55 -172 90 -190 90 -18 0 -93 -35 -192 -90 -89 -50 -164 -88 -167
-85 -2 2 11 87 30 187 25 131 32 190 26 209 -5 15 -71 84 -148 155 -76 71
-137 130 -136 132 2 1 90 13 196 27 132 17 198 29 210 40 10 9 53 92 96 185
43 94 81 170 84 170 3 0 41 -76 84 -170z"/>
</g>
</svg>
